<svg id="visual" viewBox="0 0 900 600" width="900" height="600" xmlns="http://www.w3.org/2000/svg" xmlns:xlink="http://www.w3.org/1999/xlink" version="1.1"><g stroke-width="1" stroke-linejoin="bevel"><path d="M465 295L408 314L497 329Z" fill="#eee3e0" stroke="#eee3e0"></path><path d="M408 314L508 358L497 329Z" fill="#9e94ac" stroke="#9e94ac"></path><path d="M408 314L417 468L508 358Z" fill="#e4d5d3" stroke="#e4d5d3"></path><path d="M375 331L417 468L408 314Z" fill="#b19fb2" stroke="#b19fb2"></path><path d="M340 373L417 468L375 331Z" fill="#e4d5d3" stroke="#e4d5d3"></path><path d="M417 125L378 189L465 295Z" fill="#9e94ac" stroke="#9e94ac"></path><path d="M465 295L378 189L408 314Z" fill="#dac6c8" stroke="#dac6c8"></path><path d="M408 314L378 189L375 331Z" fill="#9e94ac" stroke="#9e94ac"></path><path d="M375 331L242 285L340 373Z" fill="#cfb8bf" stroke="#cfb8bf"></path><path d="M340 373L378 501L417 468Z" fill="#e4d5d3" stroke="#e4d5d3"></path><path d="M547 564L581 510L417 468Z" fill="#9e94ac" stroke="#9e94ac"></path><path d="M417 468L581 510L508 358Z" fill="#9e94ac" stroke="#9e94ac"></path><path d="M508 358L668 376L497 329Z" fill="#e4d5d3" stroke="#e4d5d3"></path><path d="M293 178L242 285L375 331Z" fill="#e4d5d3" stroke="#e4d5d3"></path><path d="M340 373L186 395L378 501Z" fill="#e4d5d3" stroke="#e4d5d3"></path><path d="M610 134L417 125L465 295Z" fill="#9e94ac" stroke="#9e94ac"></path><path d="M378 189L293 178L375 331Z" fill="#f7f2ef" stroke="#f7f2ef"></path><path d="M610 134L465 295L497 329Z" fill="#c1abb8" stroke="#c1abb8"></path><path d="M581 510L668 376L508 358Z" fill="#e4d5d3" stroke="#e4d5d3"></path><path d="M355 600L413 564L378 501Z" fill="#6f809e" stroke="#6f809e"></path><path d="M378 501L413 564L417 468Z" fill="#6f809e" stroke="#6f809e"></path><path d="M319 106L293 178L378 189Z" fill="#9e94ac" stroke="#9e94ac"></path><path d="M413 564L547 564L417 468Z" fill="#b19fb2" stroke="#b19fb2"></path><path d="M817 430L699 335L668 376Z" fill="#f7f2ef" stroke="#f7f2ef"></path><path d="M692 467L668 376L581 510Z" fill="#8789a6" stroke="#8789a6"></path><path d="M668 376L699 335L497 329Z" fill="#f7f2ef" stroke="#f7f2ef"></path><path d="M682 206L610 134L497 329Z" fill="#f7f2ef" stroke="#f7f2ef"></path><path d="M155 254L186 395L242 285Z" fill="#547793" stroke="#547793"></path><path d="M242 285L186 395L340 373Z" fill="#e4d5d3" stroke="#e4d5d3"></path><path d="M417 125L319 106L378 189Z" fill="#6f809e" stroke="#6f809e"></path><path d="M293 178L155 254L242 285Z" fill="#dac6c8" stroke="#dac6c8"></path><path d="M322 38L319 106L417 125Z" fill="#f7f2ef" stroke="#f7f2ef"></path><path d="M699 335L682 206L497 329Z" fill="#b19fb2" stroke="#b19fb2"></path><path d="M413 564L537 600L547 564Z" fill="#8789a6" stroke="#8789a6"></path><path d="M736 500L692 467L581 510Z" fill="#b19fb2" stroke="#b19fb2"></path><path d="M554 600L581 510L547 564Z" fill="#dac6c8" stroke="#dac6c8"></path><path d="M308 600L355 600L378 501Z" fill="#547793" stroke="#547793"></path><path d="M413 564L355 600L537 600Z" fill="#f7f2ef" stroke="#f7f2ef"></path><path d="M537 600L554 600L547 564Z" fill="#eee3e0" stroke="#eee3e0"></path><path d="M699 335L713 251L682 206Z" fill="#dac6c8" stroke="#dac6c8"></path><path d="M748 217L713 251L772 281Z" fill="#dac6c8" stroke="#dac6c8"></path><path d="M186 395L308 600L378 501Z" fill="#e4d5d3" stroke="#e4d5d3"></path><path d="M85 114L155 254L293 178Z" fill="#9e94ac" stroke="#9e94ac"></path><path d="M748 217L699 158L682 206Z" fill="#c1abb8" stroke="#c1abb8"></path><path d="M682 206L699 158L610 134Z" fill="#6f809e" stroke="#6f809e"></path><path d="M772 281L713 251L699 335Z" fill="#547793" stroke="#547793"></path><path d="M713 251L748 217L682 206Z" fill="#e4d5d3" stroke="#e4d5d3"></path><path d="M118 383L138 441L186 395Z" fill="#dac6c8" stroke="#dac6c8"></path><path d="M186 395L134 484L308 600Z" fill="#dac6c8" stroke="#dac6c8"></path><path d="M763 600L736 500L581 510Z" fill="#e4d5d3" stroke="#e4d5d3"></path><path d="M692 467L817 430L668 376Z" fill="#6f809e" stroke="#6f809e"></path><path d="M817 430L772 281L699 335Z" fill="#6f809e" stroke="#6f809e"></path><path d="M492 0L322 38L417 125Z" fill="#eee3e0" stroke="#eee3e0"></path><path d="M319 106L184 32L293 178Z" fill="#eee3e0" stroke="#eee3e0"></path><path d="M492 0L417 125L493 0Z" fill="#8789a6" stroke="#8789a6"></path><path d="M155 254L118 383L186 395Z" fill="#c1abb8" stroke="#c1abb8"></path><path d="M493 0L417 125L610 134Z" fill="#dac6c8" stroke="#dac6c8"></path><path d="M627 0L493 0L610 134Z" fill="#c1abb8" stroke="#c1abb8"></path><path d="M0 448L134 484L138 441Z" fill="#e4d5d3" stroke="#e4d5d3"></path><path d="M138 441L134 484L186 395Z" fill="#547793" stroke="#547793"></path><path d="M492 0L323 0L322 38Z" fill="#8789a6" stroke="#8789a6"></path><path d="M322 38L184 32L319 106Z" fill="#f7f2ef" stroke="#f7f2ef"></path><path d="M761 110L664 39L699 158Z" fill="#6f809e" stroke="#6f809e"></path><path d="M699 158L664 39L610 134Z" fill="#9e94ac" stroke="#9e94ac"></path><path d="M736 500L817 430L692 467Z" fill="#c1abb8" stroke="#c1abb8"></path><path d="M134 484L166 600L308 600Z" fill="#e4d5d3" stroke="#e4d5d3"></path><path d="M817 430L828 276L772 281Z" fill="#8789a6" stroke="#8789a6"></path><path d="M772 281L828 276L748 217Z" fill="#547793" stroke="#547793"></path><path d="M748 217L761 110L699 158Z" fill="#547793" stroke="#547793"></path><path d="M664 39L627 0L610 134Z" fill="#8789a6" stroke="#8789a6"></path><path d="M900 153L761 110L748 217Z" fill="#e4d5d3" stroke="#e4d5d3"></path><path d="M664 39L731 0L627 0Z" fill="#c1abb8" stroke="#c1abb8"></path><path d="M554 600L763 600L581 510Z" fill="#e4d5d3" stroke="#e4d5d3"></path><path d="M736 500L900 518L817 430Z" fill="#9e94ac" stroke="#9e94ac"></path><path d="M323 0L184 32L322 38Z" fill="#cfb8bf" stroke="#cfb8bf"></path><path d="M155 254L0 249L118 383Z" fill="#9e94ac" stroke="#9e94ac"></path><path d="M45 600L127 599L134 484Z" fill="#dac6c8" stroke="#dac6c8"></path><path d="M134 484L127 599L166 600Z" fill="#b19fb2" stroke="#b19fb2"></path><path d="M85 114L66 180L155 254Z" fill="#6f809e" stroke="#6f809e"></path><path d="M118 383L0 422L138 441Z" fill="#9e94ac" stroke="#9e94ac"></path><path d="M184 32L85 114L293 178Z" fill="#8789a6" stroke="#8789a6"></path><path d="M763 600L794 600L736 500Z" fill="#8789a6" stroke="#8789a6"></path><path d="M900 0L731 0L761 110Z" fill="#eee3e0" stroke="#eee3e0"></path><path d="M761 110L731 0L664 39Z" fill="#547793" stroke="#547793"></path><path d="M817 430L900 343L828 276Z" fill="#9e94ac" stroke="#9e94ac"></path><path d="M828 276L900 200L748 217Z" fill="#547793" stroke="#547793"></path><path d="M900 518L900 343L817 430Z" fill="#c1abb8" stroke="#c1abb8"></path><path d="M0 249L0 422L118 383Z" fill="#c1abb8" stroke="#c1abb8"></path><path d="M0 208L0 249L66 180Z" fill="#dac6c8" stroke="#dac6c8"></path><path d="M66 180L0 249L155 254Z" fill="#c1abb8" stroke="#c1abb8"></path><path d="M900 343L900 249L828 276Z" fill="#c1abb8" stroke="#c1abb8"></path><path d="M0 422L0 448L138 441Z" fill="#eee3e0" stroke="#eee3e0"></path><path d="M0 148L0 208L66 180Z" fill="#cfb8bf" stroke="#cfb8bf"></path><path d="M323 0L123 0L184 32Z" fill="#6f809e" stroke="#6f809e"></path><path d="M184 32L123 0L85 114Z" fill="#8789a6" stroke="#8789a6"></path><path d="M85 114L0 148L66 180Z" fill="#f7f2ef" stroke="#f7f2ef"></path><path d="M900 249L900 200L828 276Z" fill="#b19fb2" stroke="#b19fb2"></path><path d="M0 448L45 600L134 484Z" fill="#cfb8bf" stroke="#cfb8bf"></path><path d="M127 599L45 600L166 600Z" fill="#b19fb2" stroke="#b19fb2"></path><path d="M123 0L112 0L85 114Z" fill="#eee3e0" stroke="#eee3e0"></path><path d="M794 600L900 518L736 500Z" fill="#c1abb8" stroke="#c1abb8"></path><path d="M900 200L900 153L748 217Z" fill="#b19fb2" stroke="#b19fb2"></path><path d="M0 0L0 148L85 114Z" fill="#b19fb2" stroke="#b19fb2"></path><path d="M0 448L0 600L45 600Z" fill="#8789a6" stroke="#8789a6"></path><path d="M794 600L900 600L900 518Z" fill="#dac6c8" stroke="#dac6c8"></path><path d="M112 0L0 0L85 114Z" fill="#6f809e" stroke="#6f809e"></path><path d="M900 153L900 0L761 110Z" fill="#eee3e0" stroke="#eee3e0"></path></g></svg>