<svg id="visual" viewBox="0 0 900 600" width="900" height="600" xmlns="http://www.w3.org/2000/svg" xmlns:xlink="http://www.w3.org/1999/xlink" version="1.1"><rect x="0" y="0" width="900" height="600" fill="#C1C9CC"></rect><path d="M0 358L21.5 367C43 376 86 394 128.8 403.2C171.7 412.3 214.3 412.7 257.2 418.5C300 424.3 343 435.7 385.8 438C428.7 440.3 471.3 433.7 514.2 427.3C557 421 600 415 642.8 405.5C685.7 396 728.3 383 771.2 385.8C814 388.7 857 407.3 878.5 416.7L900 426L900 601L878.5 601C857 601 814 601 771.2 601C728.3 601 685.7 601 642.8 601C600 601 557 601 514.2 601C471.3 601 428.7 601 385.8 601C343 601 300 601 257.2 601C214.3 601 171.7 601 128.8 601C86 601 43 601 21.5 601L0 601Z" fill="#e0e0e0"></path><path d="M0 468L21.5 460.8C43 453.7 86 439.3 128.8 435.3C171.7 431.3 214.3 437.7 257.2 446C300 454.3 343 464.7 385.8 463.7C428.7 462.7 471.3 450.3 514.2 450.7C557 451 600 464 642.8 465C685.7 466 728.3 455 771.2 447.2C814 439.3 857 434.7 878.5 432.3L900 430L900 601L878.5 601C857 601 814 601 771.2 601C728.3 601 685.7 601 642.8 601C600 601 557 601 514.2 601C471.3 601 428.7 601 385.8 601C343 601 300 601 257.2 601C214.3 601 171.7 601 128.8 601C86 601 43 601 21.5 601L0 601Z" fill="#eeebe9"></path><path d="M0 499L21.5 501C43 503 86 507 128.8 507.5C171.7 508 214.3 505 257.2 504C300 503 343 504 385.8 497.7C428.7 491.3 471.3 477.7 514.2 475.5C557 473.3 600 482.7 642.8 478.7C685.7 474.7 728.3 457.3 771.2 449.8C814 442.3 857 444.7 878.5 445.8L900 447L900 601L878.5 601C857 601 814 601 771.2 601C728.3 601 685.7 601 642.8 601C600 601 557 601 514.2 601C471.3 601 428.7 601 385.8 601C343 601 300 601 257.2 601C214.3 601 171.7 601 128.8 601C86 601 43 601 21.5 601L0 601Z" fill="#f7f2ef"></path><path d="M0 495L21.5 502C43 509 86 523 128.8 529.8C171.7 536.7 214.3 536.3 257.2 536.8C300 537.3 343 538.7 385.8 533C428.7 527.3 471.3 514.7 514.2 510.3C557 506 600 510 642.8 515.5C685.7 521 728.3 528 771.2 530.2C814 532.3 857 529.7 878.5 528.3L900 527L900 601L878.5 601C857 601 814 601 771.2 601C728.3 601 685.7 601 642.8 601C600 601 557 601 514.2 601C471.3 601 428.7 601 385.8 601C343 601 300 601 257.2 601C214.3 601 171.7 601 128.8 601C86 601 43 601 21.5 601L0 601Z" fill="#eeebe9"></path><path d="M0 541L21.5 544.8C43 548.7 86 556.3 128.8 561.5C171.7 566.7 214.3 569.3 257.2 567.5C300 565.7 343 559.3 385.8 558.3C428.7 557.3 471.3 561.7 514.2 562.5C557 563.3 600 560.7 642.8 556C685.7 551.3 728.3 544.7 771.2 539.3C814 534 857 530 878.5 528L900 526L900 601L878.5 601C857 601 814 601 771.2 601C728.3 601 685.7 601 642.8 601C600 601 557 601 514.2 601C471.3 601 428.7 601 385.8 601C343 601 300 601 257.2 601C214.3 601 171.7 601 128.8 601C86 601 43 601 21.5 601L0 601Z" fill="#e0e0e0"></path></svg>