<svg id="visual" viewBox="0 0 900 600" width="900" height="600" xmlns="http://www.w3.org/2000/svg" xmlns:xlink="http://www.w3.org/1999/xlink" version="1.1"><rect x="0" y="0" width="900" height="600" fill="#547793"></rect><defs><linearGradient id="grad1_0" x1="33.3%" y1="0%" x2="100%" y2="100%"><stop offset="20%" stop-color="#c1c9cc" stop-opacity="1"></stop><stop offset="80%" stop-color="#c1c9cc" stop-opacity="1"></stop></linearGradient></defs><defs><linearGradient id="grad1_1" x1="33.3%" y1="0%" x2="100%" y2="100%"><stop offset="20%" stop-color="#c1c9cc" stop-opacity="1"></stop><stop offset="80%" stop-color="#88a0ae" stop-opacity="1"></stop></linearGradient></defs><defs><linearGradient id="grad1_2" x1="33.3%" y1="0%" x2="100%" y2="100%"><stop offset="20%" stop-color="#547793" stop-opacity="1"></stop><stop offset="80%" stop-color="#88a0ae" stop-opacity="1"></stop></linearGradient></defs><defs><linearGradient id="grad2_0" x1="0%" y1="0%" x2="66.7%" y2="100%"><stop offset="20%" stop-color="#c1c9cc" stop-opacity="1"></stop><stop offset="80%" stop-color="#c1c9cc" stop-opacity="1"></stop></linearGradient></defs><defs><linearGradient id="grad2_1" x1="0%" y1="0%" x2="66.7%" y2="100%"><stop offset="20%" stop-color="#88a0ae" stop-opacity="1"></stop><stop offset="80%" stop-color="#c1c9cc" stop-opacity="1"></stop></linearGradient></defs><defs><linearGradient id="grad2_2" x1="0%" y1="0%" x2="66.7%" y2="100%"><stop offset="20%" stop-color="#88a0ae" stop-opacity="1"></stop><stop offset="80%" stop-color="#547793" stop-opacity="1"></stop></linearGradient></defs><g transform="translate(900, 0)"><path d="M0 486.7C-71.9 487.6 -143.7 488.5 -186.3 449.7C-228.8 410.9 -242.1 332.5 -286.4 286.4C-330.6 240.3 -405.8 226.4 -444.4 184.1C-482.9 141.7 -484.8 70.9 -486.7 0L0 0Z" fill="#6d8ba0"></path><path d="M0 324.5C-47.9 325.1 -95.8 325.6 -124.2 299.8C-152.6 273.9 -161.4 221.7 -190.9 190.9C-220.4 160.2 -270.6 150.9 -296.3 122.7C-322 94.5 -323.2 47.2 -324.5 0L0 0Z" fill="#a4b4bd"></path><path d="M0 162.2C-24 162.5 -47.9 162.8 -62.1 149.9C-76.3 137 -80.7 110.8 -95.5 95.5C-110.2 80.1 -135.3 75.5 -148.1 61.4C-161 47.2 -161.6 23.6 -162.2 0L0 0Z" fill="#c1c9cc"></path></g><g transform="translate(0, 600)"><path d="M0 -486.7C47.1 -445.1 94.1 -403.5 160.7 -388C227.3 -372.5 313.4 -383.1 344.2 -344.2C375 -305.2 350.4 -216.8 364.9 -151.2C379.5 -85.5 433.1 -42.8 486.7 0L0 0Z" fill="#6d8ba0"></path><path d="M0 -324.5C31.4 -296.8 62.8 -269 107.2 -258.7C151.5 -248.3 208.9 -255.4 229.5 -229.5C250 -203.5 233.6 -144.5 243.3 -100.8C253 -57 288.7 -28.5 324.5 0L0 0Z" fill="#a4b4bd"></path><path d="M0 -162.2C15.7 -148.4 31.4 -134.5 53.6 -129.3C75.8 -124.2 104.5 -127.7 114.7 -114.7C125 -101.7 116.8 -72.3 121.6 -50.4C126.5 -28.5 144.4 -14.3 162.2 0L0 0Z" fill="#c1c9cc"></path></g></svg>