<svg id="visual" viewBox="0 0 900 600" width="900" height="600" xmlns="http://www.w3.org/2000/svg" xmlns:xlink="http://www.w3.org/1999/xlink" version="1.1"><path d="M0 229L15 217C30 205 60 181 90 170C120 159 150 161 180 160C210 159 240 155 270 173C300 191 330 231 360 237C390 243 420 215 450 205C480 195 510 203 540 199C570 195 600 179 630 183C660 187 690 211 720 223C750 235 780 235 810 233C840 231 870 227 885 225L900 223L900 0L885 0C870 0 840 0 810 0C780 0 750 0 720 0C690 0 660 0 630 0C600 0 570 0 540 0C510 0 480 0 450 0C420 0 390 0 360 0C330 0 300 0 270 0C240 0 210 0 180 0C150 0 120 0 90 0C60 0 30 0 15 0L0 0Z" fill="#c1c9cc"></path><path d="M0 349L15 338C30 327 60 305 90 295C120 285 150 287 180 287C210 287 240 285 270 302C300 319 330 355 360 360C390 365 420 339 450 333C480 327 510 341 540 335C570 329 600 303 630 302C660 301 690 325 720 338C750 351 780 353 810 348C840 343 870 331 885 325L900 319L900 221L885 223C870 225 840 229 810 231C780 233 750 233 720 221C690 209 660 185 630 181C600 177 570 193 540 197C510 201 480 193 450 203C420 213 390 241 360 235C330 229 300 189 270 171C240 153 210 157 180 158C150 159 120 157 90 168C60 179 30 203 15 215L0 227Z" fill="#eeebe7"></path><path d="M0 529L15 529C30 529 60 529 90 522C120 515 150 501 180 495C210 489 240 491 270 498C300 505 330 517 360 515C390 513 420 497 450 492C480 487 510 493 540 498C570 503 600 507 630 512C660 517 690 523 720 524C750 525 780 521 810 518C840 515 870 513 885 512L900 511L900 317L885 323C870 329 840 341 810 346C780 351 750 349 720 336C690 323 660 299 630 300C600 301 570 327 540 333C510 339 480 325 450 331C420 337 390 363 360 358C330 353 300 317 270 300C240 283 210 285 180 285C150 285 120 283 90 293C60 303 30 325 15 336L0 347Z" fill="#eeebe7"></path><path d="M0 601L15 601C30 601 60 601 90 601C120 601 150 601 180 601C210 601 240 601 270 601C300 601 330 601 360 601C390 601 420 601 450 601C480 601 510 601 540 601C570 601 600 601 630 601C660 601 690 601 720 601C750 601 780 601 810 601C840 601 870 601 885 601L900 601L900 509L885 510C870 511 840 513 810 516C780 519 750 523 720 522C690 521 660 515 630 510C600 505 570 501 540 496C510 491 480 485 450 490C420 495 390 511 360 513C330 515 300 503 270 496C240 489 210 487 180 493C150 499 120 513 90 520C60 527 30 527 15 527L0 527Z" fill="#c1c9cc"></path></svg>